<svg width="26" height="26" viewBox="0 0 26 26" fill="none" xmlns="http://www.w3.org/2000/svg">
<path d="M5.66093 19.5267L15.0303 15.1544L19.4027 5.785L10.0333 10.1574L5.66093 19.5267ZM12.5318 13.9051C12.1778 13.9051 11.8814 13.7852 11.6423 13.5453C11.4025 13.3063 11.2825 13.0098 11.2825 12.6559C11.2825 12.3019 11.4025 12.005 11.6423 11.7652C11.8814 11.5261 12.1778 11.4066 12.5318 11.4066C12.8858 11.4066 13.1827 11.5261 13.4225 11.7652C13.6615 12.005 13.781 12.3019 13.781 12.6559C13.781 13.0098 13.6615 13.3063 13.4225 13.5453C13.1827 13.7852 12.8858 13.9051 12.5318 13.9051ZM12.5318 25.1484C10.8037 25.1484 9.17965 24.8202 7.65973 24.164C6.13981 23.5085 4.81769 22.6186 3.69336 21.4943C2.56904 20.37 1.67915 19.0479 1.02372 17.5279C0.367443 16.008 0.0393066 14.384 0.0393066 12.6559C0.0393066 10.9277 0.367443 9.30372 1.02372 7.7838C1.67915 6.26388 2.56904 4.94175 3.69336 3.81743C4.81769 2.69311 6.13981 1.80281 7.65973 1.14653C9.17965 0.491095 10.8037 0.163376 12.5318 0.163376C14.2599 0.163376 15.884 0.491095 17.4039 1.14653C18.9238 1.80281 20.2459 2.69311 21.3702 3.81743C22.4946 4.94175 23.3844 6.26388 24.0399 7.7838C24.6962 9.30372 25.0243 10.9277 25.0243 12.6559C25.0243 14.384 24.6962 16.008 24.0399 17.5279C23.3844 19.0479 22.4946 20.37 21.3702 21.4943C20.2459 22.6186 18.9238 23.5085 17.4039 24.164C15.884 24.8202 14.2599 25.1484 12.5318 25.1484ZM12.5318 22.6499C15.3218 22.6499 17.685 21.6817 19.6213 19.7454C21.5576 17.809 22.5258 15.4459 22.5258 12.6559C22.5258 9.86588 21.5576 7.50271 19.6213 5.56638C17.685 3.63004 15.3218 2.66187 12.5318 2.66187C9.74181 2.66187 7.37865 3.63004 5.44231 5.56638C3.50597 7.50271 2.53781 9.86588 2.53781 12.6559C2.53781 15.4459 3.50597 17.809 5.44231 19.7454C7.37865 21.6817 9.74181 22.6499 12.5318 22.6499Z" fill="white"/>
</svg>
