<svg width="31" height="31" viewBox="0 0 31 31" fill="none" xmlns="http://www.w3.org/2000/svg">
<path d="M15.5316 28.6889C14.6946 28.6889 13.8451 28.4765 13.0956 28.0392L5.67503 23.7543C4.17593 22.8798 3.23901 21.2683 3.23901 19.5319V10.987C3.23901 9.25058 4.17593 7.63904 5.67503 6.76456L13.0956 2.47965C14.5947 1.60517 16.4561 1.60517 17.9677 2.47965L25.3882 6.76456C26.8873 7.63904 27.8242 9.25058 27.8242 10.987V19.5319C27.8242 21.2683 26.8873 22.8798 25.3882 23.7543L17.9677 28.0392C17.2181 28.4765 16.3686 28.6889 15.5316 28.6889ZM15.5316 3.70389C15.0194 3.70389 14.4947 3.84131 14.0325 4.10366L6.61196 8.38857C5.68752 8.92575 5.11289 9.91268 5.11289 10.987V19.5319C5.11289 20.5937 5.68752 21.5931 6.61196 22.1303L14.0325 26.4152C14.957 26.9524 16.1063 26.9524 17.0307 26.4152L24.4513 22.1303C25.3757 21.5931 25.9504 20.6062 25.9504 19.5319V10.987C25.9504 9.92517 25.3757 8.92575 24.4513 8.38857L17.0307 4.10366C16.5685 3.84131 16.0438 3.70389 15.5316 3.70389Z" fill="white"/>
<path d="M14.3949 19.8442C13.9452 19.8442 13.5204 19.7318 13.1332 19.5194C12.2712 19.0197 11.7715 18.0079 11.7715 16.7461V13.7479C11.7715 12.4862 12.2712 11.4743 13.1332 10.9746C13.9951 10.4749 15.1195 10.5498 16.2063 11.187L18.8048 12.6861C19.8916 13.3107 20.5287 14.2476 20.5287 15.247C20.5287 16.2464 19.9041 17.1708 18.8048 17.808L16.2063 19.3071C15.6067 19.6694 14.9821 19.8442 14.3949 19.8442ZM14.4074 12.5362C14.2825 12.5362 14.1701 12.5612 14.0826 12.6111C13.8203 12.761 13.6579 13.1858 13.6579 13.7604V16.7586C13.6579 17.3208 13.8203 17.7455 14.0826 17.9079C14.3449 18.0578 14.7947 17.9829 15.2819 17.6956L17.8803 16.1965C18.3675 15.9091 18.6549 15.5593 18.6549 15.2595C18.6549 14.9597 18.3675 14.6099 17.8803 14.3226L15.2819 12.8235C14.9571 12.6361 14.6448 12.5362 14.4074 12.5362Z" fill="white"/>
</svg>
