<svg width="32" height="32" viewBox="0 0 32 32" fill="none" xmlns="http://www.w3.org/2000/svg">
<path d="M16.0001 21.6667C12.5067 21.6667 9.66675 18.8267 9.66675 15.3333V7.99999C9.66675 4.50666 12.5067 1.66666 16.0001 1.66666C19.4934 1.66666 22.3334 4.50666 22.3334 7.99999V15.3333C22.3334 18.8267 19.4934 21.6667 16.0001 21.6667ZM16.0001 3.66666C13.6134 3.66666 11.6667 5.61332 11.6667 7.99999V15.3333C11.6667 17.72 13.6134 19.6667 16.0001 19.6667C18.3867 19.6667 20.3334 17.72 20.3334 15.3333V7.99999C20.3334 5.61332 18.3867 3.66666 16.0001 3.66666Z" fill="white" fill-opacity="0.8"/>
<path d="M16 26.3333C9.82671 26.3333 4.80005 21.3067 4.80005 15.1333V12.8667C4.80005 12.32 5.25338 11.8667 5.80005 11.8667C6.34672 11.8667 6.80005 12.32 6.80005 12.8667V15.1333C6.80005 20.2 10.9334 24.3333 16 24.3333C21.0667 24.3333 25.2 20.2 25.2 15.1333V12.8667C25.2 12.32 25.6534 11.8667 26.2 11.8667C26.7467 11.8667 27.2 12.32 27.2 12.8667V15.1333C27.2 21.3067 22.1734 26.3333 16 26.3333Z" fill="white" fill-opacity="0.8"/>
<path d="M17.8533 9.57334C17.7467 9.57334 17.6267 9.56001 17.5067 9.52001C16.5333 9.16001 15.4667 9.16001 14.4933 9.52001C13.9733 9.70668 13.4 9.44001 13.2133 8.92001C13.0267 8.40001 13.2933 7.82668 13.8133 7.64001C15.2267 7.13334 16.7867 7.13334 18.2 7.64001C18.72 7.82668 18.9867 8.40001 18.8 8.92001C18.64 9.32001 18.2533 9.57334 17.8533 9.57334Z" fill="white" fill-opacity="0.8"/>
<path d="M17.0666 12.4C16.9733 12.4 16.8933 12.3867 16.7999 12.36C16.2666 12.2133 15.7199 12.2133 15.1866 12.36C14.6533 12.5067 14.1066 12.1867 13.9599 11.6533C13.8133 11.1333 14.1333 10.5867 14.6666 10.44C15.5333 10.2 16.4666 10.2 17.3333 10.44C17.8666 10.5867 18.1866 11.1333 18.0399 11.6667C17.9199 12.1067 17.5066 12.4 17.0666 12.4Z" fill="white" fill-opacity="0.8"/>
<path d="M16 30.3333C15.4533 30.3333 15 29.88 15 29.3333V25.3333C15 24.7867 15.4533 24.3333 16 24.3333C16.5467 24.3333 17 24.7867 17 25.3333V29.3333C17 29.88 16.5467 30.3333 16 30.3333Z" fill="white" fill-opacity="0.8"/>
</svg>
