<svg width="31" height="31" viewBox="0 0 31 31" fill="none" xmlns="http://www.w3.org/2000/svg">
<path d="M21.7777 28.4457H9.28523C4.72547 28.4457 2.10205 25.8222 2.10205 21.2625V15.0162C2.10205 10.4565 4.72547 7.83304 9.28523 7.83304H21.7777C26.3375 7.83304 28.9609 10.4565 28.9609 15.0162V21.2625C28.9609 25.8222 26.3375 28.4457 21.7777 28.4457ZM9.28523 9.70691C5.71238 9.70691 3.97592 11.4434 3.97592 15.0162V21.2625C3.97592 24.8353 5.71238 26.5718 9.28523 26.5718H21.7777C25.3506 26.5718 27.087 24.8353 27.087 21.2625V15.0162C27.087 11.4434 25.3506 9.70691 21.7777 9.70691H9.28523Z" fill="white"/>
<path d="M23.0271 6.5838H8.03606C7.52387 6.5838 7.09912 6.15906 7.09912 5.64687C7.09912 5.13468 7.52387 4.70993 8.03606 4.70993H23.0271C23.5392 4.70993 23.964 5.13468 23.964 5.64687C23.964 6.15906 23.5392 6.5838 23.0271 6.5838Z" fill="white"/>
<path d="M19.2794 3.46068H11.7839C11.2717 3.46068 10.8469 3.03594 10.8469 2.52374C10.8469 2.01155 11.2717 1.58681 11.7839 1.58681H19.2794C19.7915 1.58681 20.2163 2.01155 20.2163 2.52374C20.2163 3.03594 19.7915 3.46068 19.2794 3.46068Z" fill="white"/>
<path d="M11.6462 24.8353C10.1846 24.8353 8.9978 23.6485 8.9978 22.1869C8.9978 20.7253 10.1846 19.5385 11.6462 19.5385C13.1078 19.5385 14.2946 20.7253 14.2946 22.1869C14.2946 23.6485 13.1078 24.8353 11.6462 24.8353ZM11.6462 21.4124C11.2215 21.4124 10.8717 21.7622 10.8717 22.1869C10.8717 22.6116 11.2215 22.9614 11.6462 22.9614C12.071 22.9614 12.4207 22.6116 12.4207 22.1869C12.4207 21.7622 12.071 21.4124 11.6462 21.4124Z" fill="white"/>
<path d="M13.3576 23.1239C12.8454 23.1239 12.4207 22.6991 12.4207 22.1869V15.3035C12.4207 14.2042 13.1078 13.3172 14.1571 13.0299L17.5801 12.093C18.6669 11.7931 19.354 12.0805 19.7287 12.3803C20.1035 12.6677 20.5533 13.2548 20.5533 14.3666V21.0501C20.5533 21.5623 20.1285 21.9871 19.6163 21.9871C19.1041 21.9871 18.6794 21.5623 18.6794 21.0501V14.3666C18.6794 14.0168 18.6044 13.8795 18.5794 13.867C18.5545 13.8545 18.4046 13.8045 18.0548 13.9044L14.6443 14.8413C14.332 14.9288 14.282 15.1412 14.282 15.3161V22.1994C14.2945 22.6991 13.8698 23.1239 13.3576 23.1239Z" fill="white"/>
<path d="M17.9174 23.6985C16.4558 23.6985 15.269 22.5117 15.269 21.0501C15.269 19.5884 16.4558 18.4017 17.9174 18.4017C19.3791 18.4017 20.5659 19.5884 20.5659 21.0501C20.5659 22.5117 19.3791 23.6985 17.9174 23.6985ZM17.9174 20.2755C17.4927 20.2755 17.1429 20.6253 17.1429 21.0501C17.1429 21.4748 17.4927 21.8246 17.9174 21.8246C18.3422 21.8246 18.692 21.4748 18.692 21.0501C18.692 20.6253 18.3422 20.2755 17.9174 20.2755Z" fill="white"/>
<path d="M13.3577 18.2393C12.9454 18.2393 12.5706 17.9645 12.4582 17.5522C12.3208 17.0525 12.6206 16.5403 13.1203 16.4029L19.3791 14.6914C19.8913 14.554 20.3909 14.8538 20.5284 15.3535C20.6658 15.8532 20.3659 16.3654 19.8662 16.5028L13.6075 18.2143C13.5201 18.2268 13.4451 18.2393 13.3577 18.2393Z" fill="white"/>
</svg>
