<svg width="32" height="32" viewBox="0 0 32 32" fill="none" xmlns="http://www.w3.org/2000/svg">
<path d="M29.3333 9.66666H21.3333C20.7866 9.66666 20.3333 9.21332 20.3333 8.66666C20.3333 8.11999 20.7866 7.66666 21.3333 7.66666H29.3333C29.8799 7.66666 30.3333 8.11999 30.3333 8.66666C30.3333 9.21332 29.8799 9.66666 29.3333 9.66666Z" fill="white"/>
<path d="M8.00008 9.66666H2.66675C2.12008 9.66666 1.66675 9.21332 1.66675 8.66666C1.66675 8.11999 2.12008 7.66666 2.66675 7.66666H8.00008C8.54675 7.66666 9.00008 8.11999 9.00008 8.66666C9.00008 9.21332 8.54675 9.66666 8.00008 9.66666Z" fill="white"/>
<path d="M13.3334 14.3333C10.2134 14.3333 7.66675 11.7867 7.66675 8.66667C7.66675 5.54667 10.2134 3 13.3334 3C16.4534 3 19.0001 5.54667 19.0001 8.66667C19.0001 11.7867 16.4534 14.3333 13.3334 14.3333ZM13.3334 5C11.3067 5 9.66675 6.64 9.66675 8.66667C9.66675 10.6933 11.3067 12.3333 13.3334 12.3333C15.3601 12.3333 17.0001 10.6933 17.0001 8.66667C17.0001 6.64 15.3601 5 13.3334 5Z" fill="white"/>
<path d="M29.3333 24.3333H24C23.4533 24.3333 23 23.88 23 23.3333C23 22.7867 23.4533 22.3333 24 22.3333H29.3333C29.88 22.3333 30.3333 22.7867 30.3333 23.3333C30.3333 23.88 29.88 24.3333 29.3333 24.3333Z" fill="white"/>
<path d="M10.6667 24.3333H2.66675C2.12008 24.3333 1.66675 23.88 1.66675 23.3333C1.66675 22.7867 2.12008 22.3333 2.66675 22.3333H10.6667C11.2134 22.3333 11.6667 22.7867 11.6667 23.3333C11.6667 23.88 11.2134 24.3333 10.6667 24.3333Z" fill="white"/>
<path d="M18.6667 29C15.5467 29 13 26.4533 13 23.3333C13 20.2133 15.5467 17.6667 18.6667 17.6667C21.7867 17.6667 24.3333 20.2133 24.3333 23.3333C24.3333 26.4533 21.7867 29 18.6667 29ZM18.6667 19.6667C16.64 19.6667 15 21.3067 15 23.3333C15 25.36 16.64 27 18.6667 27C20.6933 27 22.3333 25.36 22.3333 23.3333C22.3333 21.3067 20.6933 19.6667 18.6667 19.6667Z" fill="white"/>
</svg>
