<svg width="31" height="31" viewBox="0 0 31 31" fill="none" xmlns="http://www.w3.org/2000/svg">
<path d="M19.2792 29.2655H11.7837C5.00031 29.2655 2.10205 26.3672 2.10205 19.5838V12.0883C2.10205 5.30488 5.00031 2.40662 11.7837 2.40662H19.2792C26.0627 2.40662 28.9609 5.30488 28.9609 12.0883V19.5838C28.9609 26.3672 26.0627 29.2655 19.2792 29.2655ZM11.7837 4.2805C6.02469 4.2805 3.97592 6.32927 3.97592 12.0883V19.5838C3.97592 25.3428 6.02469 27.3916 11.7837 27.3916H19.2792C25.0383 27.3916 27.087 25.3428 27.087 19.5838V12.0883C27.087 6.32927 25.0383 4.2805 19.2792 4.2805H11.7837Z" fill="white"/>
<path d="M27.3744 10.6642H3.68865C3.17645 10.6642 2.75171 10.2394 2.75171 9.72722C2.75171 9.21503 3.16396 8.79028 3.68865 8.79028H27.3744C27.8866 8.79028 28.3113 9.21503 28.3113 9.72722C28.3113 10.2394 27.8991 10.6642 27.3744 10.6642Z" fill="white"/>
<path d="M11.184 10.4893C10.6718 10.4893 10.2471 10.0645 10.2471 9.55233V3.48098C10.2471 2.96879 10.6718 2.54404 11.184 2.54404C11.6962 2.54404 12.1209 2.96879 12.1209 3.48098V9.55233C12.1209 10.0645 11.6962 10.4893 11.184 10.4893Z" fill="white"/>
<path d="M19.8788 9.9271C19.3666 9.9271 18.9419 9.50236 18.9419 8.99017V3.48098C18.9419 2.96879 19.3666 2.54404 19.8788 2.54404C20.391 2.54404 20.8158 2.96879 20.8158 3.48098V8.99017C20.8158 9.51485 20.4035 9.9271 19.8788 9.9271Z" fill="white"/>
<path d="M14.3946 23.4815C13.9449 23.4815 13.5201 23.369 13.1329 23.1567C12.2834 22.657 11.7837 21.6576 11.7837 20.3958V17.3976C11.7837 16.1359 12.2834 15.124 13.1454 14.6243C14.0074 14.1246 15.1317 14.1995 16.2185 14.8367L18.817 16.3358C19.9038 16.9604 20.5409 17.8973 20.5409 18.8967C20.5409 19.8961 19.9038 20.833 18.8045 21.4577L16.206 22.9568C15.6064 23.3066 14.9818 23.4815 14.3946 23.4815ZM14.4071 16.1734C14.2822 16.1734 14.1698 16.1983 14.0823 16.2483C13.82 16.3982 13.6576 16.823 13.6576 17.3976V20.3958C13.6576 20.958 13.82 21.3827 14.0823 21.5451C14.3447 21.695 14.7944 21.6201 15.2816 21.3327L17.88 19.8336C18.3672 19.5463 18.6671 19.1965 18.6671 18.8967C18.6671 18.5969 18.3797 18.2471 17.88 17.9598L15.2816 16.4607C14.9568 16.2733 14.6445 16.1734 14.4071 16.1734Z" fill="white"/>
</svg>
