<svg width="22" height="16" viewBox="0 0 22 16" fill="none" xmlns="http://www.w3.org/2000/svg">
<path d="M10.9948 0.435913C17.8665 0.435913 21.9895 7.99481 21.9895 7.99481C21.9895 7.99481 17.8665 15.5537 10.9948 15.5537C4.12303 15.5537 0 7.99481 0 7.99481C0 7.99481 4.12303 0.435913 10.9948 0.435913ZM10.9948 1.81026C6.15707 1.81026 2.74594 6.27825 1.61486 7.99481C2.74457 9.70999 6.15569 14.1794 10.9948 14.1794C15.8325 14.1794 19.2436 9.71137 20.3747 7.99481C19.245 6.27963 15.8338 1.81026 10.9948 1.81026ZM10.9948 3.1846C12.2705 3.1846 13.494 3.69139 14.3961 4.59348C15.2982 5.49557 15.805 6.71906 15.805 7.99481C15.805 9.27056 15.2982 10.4941 14.3961 11.3961C13.494 12.2982 12.2705 12.805 10.9948 12.805C9.71901 12.805 8.49552 12.2982 7.59343 11.3961C6.69134 10.4941 6.18455 9.27056 6.18455 7.99481C6.18455 6.71906 6.69134 5.49557 7.59343 4.59348C8.49552 3.69139 9.71901 3.1846 10.9948 3.1846ZM10.9948 4.55895C10.0838 4.56004 9.21056 4.92238 8.56644 5.56649C7.92233 6.21061 7.55999 7.0839 7.5589 7.99481C7.5589 9.88866 9.09954 11.4307 10.9948 11.4307C12.89 11.4307 14.4306 9.88866 14.4306 7.99481C14.4306 6.10096 12.89 4.55895 10.9948 4.55895Z" fill="#AAAAAA"/>
</svg>
